<mxfile host="app.diagrams.net" modified="2020-09-23T11:39:29.471Z" agent="5.0 (Windows NT 10.0; Win64; x64) AppleWebKit/537.36 (KHTML, like Gecko) Chrome/85.0.4183.102 Safari/537.36" etag="cQY5l_O-dbQ1QrbAdXAq" version="13.7.4" type="github">
  <diagram id="n918JqjmJZDL5d9stIlF" name="Page-1">
    <mxGraphModel dx="775" dy="482" grid="1" gridSize="10" guides="1" tooltips="1" connect="1" arrows="1" fold="1" page="1" pageScale="1" pageWidth="827" pageHeight="1169" math="0" shadow="0">
      <root>
        <mxCell id="0" />
        <mxCell id="1" parent="0" />
        <mxCell id="3XLy-R_bskBAaHUA-YiK-1" value="&lt;font style=&quot;font-size: 18px&quot;&gt;Data Source&lt;/font&gt;" style="ellipse;whiteSpace=wrap;html=1;" parent="1" vertex="1">
          <mxGeometry x="20" y="120" width="120" height="80" as="geometry" />
        </mxCell>
        <mxCell id="3XLy-R_bskBAaHUA-YiK-2" value="" style="endArrow=classic;html=1;exitX=1;exitY=0.5;exitDx=0;exitDy=0;" parent="1" edge="1">
          <mxGeometry width="50" height="50" relative="1" as="geometry">
            <mxPoint x="146" y="160" as="sourcePoint" />
            <mxPoint x="246" y="160" as="targetPoint" />
          </mxGeometry>
        </mxCell>
        <mxCell id="3XLy-R_bskBAaHUA-YiK-4" value="&lt;font style=&quot;font-size: 15px&quot;&gt;ICPLOG&lt;/font&gt;" style="text;html=1;align=center;verticalAlign=middle;resizable=0;points=[];autosize=1;rotation=0;" parent="1" vertex="1">
          <mxGeometry x="160" y="130" width="70" height="20" as="geometry" />
        </mxCell>
        <mxCell id="3XLy-R_bskBAaHUA-YiK-5" value="&lt;font style=&quot;font-size: 15px&quot;&gt;GR115&lt;/font&gt;" style="text;html=1;align=center;verticalAlign=middle;resizable=0;points=[];autosize=1;rotation=0;" parent="1" vertex="1">
          <mxGeometry x="160" y="170" width="60" height="20" as="geometry" />
        </mxCell>
        <mxCell id="3XLy-R_bskBAaHUA-YiK-7" value="&lt;span style=&quot;font-size: 18px&quot;&gt;forwarder 1&lt;/span&gt;" style="ellipse;whiteSpace=wrap;html=1;" parent="1" vertex="1">
          <mxGeometry x="250" y="120" width="120" height="80" as="geometry" />
        </mxCell>
        <mxCell id="3XLy-R_bskBAaHUA-YiK-8" value="" style="endArrow=classic;html=1;exitX=1;exitY=0.5;exitDx=0;exitDy=0;entryX=0;entryY=0.5;entryDx=0;entryDy=0;" parent="1" source="3XLy-R_bskBAaHUA-YiK-7" edge="1" target="3XLy-R_bskBAaHUA-YiK-11">
          <mxGeometry width="50" height="50" relative="1" as="geometry">
            <mxPoint x="380" y="150" as="sourcePoint" />
            <mxPoint x="450" y="120" as="targetPoint" />
          </mxGeometry>
        </mxCell>
        <mxCell id="3XLy-R_bskBAaHUA-YiK-9" value="&lt;span style=&quot;font-size: 18px&quot;&gt;forwarder 2&lt;/span&gt;" style="ellipse;whiteSpace=wrap;html=1;" parent="1" vertex="1">
          <mxGeometry x="500" y="170" width="120" height="80" as="geometry" />
        </mxCell>
        <mxCell id="3XLy-R_bskBAaHUA-YiK-10" value="" style="endArrow=classic;html=1;entryX=0.017;entryY=0.425;entryDx=0;entryDy=0;entryPerimeter=0;" parent="1" edge="1" target="3XLy-R_bskBAaHUA-YiK-9">
          <mxGeometry width="50" height="50" relative="1" as="geometry">
            <mxPoint x="370" y="160" as="sourcePoint" />
            <mxPoint x="450" y="210" as="targetPoint" />
          </mxGeometry>
        </mxCell>
        <mxCell id="3XLy-R_bskBAaHUA-YiK-11" value="&lt;span style=&quot;font-size: 18px&quot;&gt;ip1&lt;/span&gt;" style="ellipse;whiteSpace=wrap;html=1;" parent="1" vertex="1">
          <mxGeometry x="470" y="50" width="120" height="80" as="geometry" />
        </mxCell>
        <mxCell id="3XLy-R_bskBAaHUA-YiK-12" value="&lt;font style=&quot;font-size: 15px&quot;&gt;ICPLOG&lt;/font&gt;" style="text;html=1;align=center;verticalAlign=middle;resizable=0;points=[];autosize=1;rotation=-35;" parent="1" vertex="1">
          <mxGeometry x="370" y="110" width="70" height="20" as="geometry" />
        </mxCell>
        <mxCell id="3XLy-R_bskBAaHUA-YiK-13" value="&lt;font style=&quot;font-size: 15px&quot;&gt;GR115&lt;/font&gt;" style="text;html=1;align=center;verticalAlign=middle;resizable=0;points=[];autosize=1;rotation=20;" parent="1" vertex="1">
          <mxGeometry x="400" y="180" width="60" height="20" as="geometry" />
        </mxCell>
        <mxCell id="3XLy-R_bskBAaHUA-YiK-14" value="" style="endArrow=classic;html=1;exitX=1;exitY=0;exitDx=0;exitDy=0;entryX=0.5;entryY=1;entryDx=0;entryDy=0;" parent="1" edge="1" target="3XLy-R_bskBAaHUA-YiK-15" source="3XLy-R_bskBAaHUA-YiK-9">
          <mxGeometry width="50" height="50" relative="1" as="geometry">
            <mxPoint x="570" y="215" as="sourcePoint" />
            <mxPoint x="650" y="175" as="targetPoint" />
          </mxGeometry>
        </mxCell>
        <mxCell id="3XLy-R_bskBAaHUA-YiK-15" value="&lt;span style=&quot;font-size: 18px&quot;&gt;ip2&lt;/span&gt;" style="ellipse;whiteSpace=wrap;html=1;" parent="1" vertex="1">
          <mxGeometry x="600" y="50" width="120" height="80" as="geometry" />
        </mxCell>
        <mxCell id="_-6v9AoKFoI3q5lHTvhH-10" value="" style="endArrow=none;dashed=1;html=1;dashPattern=1 3;strokeWidth=2;" edge="1" parent="1">
          <mxGeometry width="50" height="50" relative="1" as="geometry">
            <mxPoint x="450" y="150" as="sourcePoint" />
            <mxPoint x="450" y="40" as="targetPoint" />
          </mxGeometry>
        </mxCell>
        <mxCell id="_-6v9AoKFoI3q5lHTvhH-11" value="" style="endArrow=none;dashed=1;html=1;dashPattern=1 3;strokeWidth=2;" edge="1" parent="1">
          <mxGeometry width="50" height="50" relative="1" as="geometry">
            <mxPoint x="450" y="150" as="sourcePoint" />
            <mxPoint x="730" y="150" as="targetPoint" />
          </mxGeometry>
        </mxCell>
        <mxCell id="_-6v9AoKFoI3q5lHTvhH-13" value="" style="endArrow=none;dashed=1;html=1;dashPattern=1 3;strokeWidth=2;" edge="1" parent="1">
          <mxGeometry width="50" height="50" relative="1" as="geometry">
            <mxPoint x="450" y="40" as="sourcePoint" />
            <mxPoint x="730" y="40" as="targetPoint" />
          </mxGeometry>
        </mxCell>
        <mxCell id="_-6v9AoKFoI3q5lHTvhH-14" value="" style="endArrow=none;dashed=1;html=1;dashPattern=1 3;strokeWidth=2;" edge="1" parent="1">
          <mxGeometry width="50" height="50" relative="1" as="geometry">
            <mxPoint x="730" y="150" as="sourcePoint" />
            <mxPoint x="730" y="40" as="targetPoint" />
          </mxGeometry>
        </mxCell>
      </root>
    </mxGraphModel>
  </diagram>
</mxfile>
